<?xml version="1.0" ?><svg data-name="Layer 6" id="Layer_6" viewBox="0 0 32 32" xmlns="http://www.w3.org/2000/svg"><defs><style>.cls-1{fill:#ffffff;}</style></defs><title/><path class="cls-1" d="M31.6,22.38l0-.06v0a6.52,6.52,0,0,0-.42-.89l-1.22-2.12a1.26,1.26,0,0,0-2.19,1.26l.57,1h-25l2.38-4.13h21a1.26,1.26,0,0,0,1.26-1.26,1.37,1.37,0,0,0-.23-.72L21.25,4.28a6.29,6.29,0,0,0-10.91,0L7.69,8.86a1.29,1.29,0,0,0,1.09,1.89H22.07l2.39,4.13H7.13l.56-1A1.26,1.26,0,0,0,5.5,12.65L.42,21.44c-.49.89-.87,2.63.75,2.63H29.43a3.77,3.77,0,0,1-.63,2.65,3.73,3.73,0,0,1-3.12,1.63H5.9A3.68,3.68,0,0,1,3,27a1.26,1.26,0,1,0-1.93,1.63A6.25,6.25,0,0,0,5.9,30.87H25.68a6.31,6.31,0,0,0,5.92-8.49ZM11,8.23l1.55-2.68a3.77,3.77,0,0,1,6.54,0l1.55,2.68Z"/></svg>