<?xml version="1.0" ?><!DOCTYPE svg  PUBLIC '-//W3C//DTD SVG 1.1//EN'  'http://www.w3.org/Graphics/SVG/1.1/DTD/svg11.dtd'><svg height="512px" style="enable-background:new 0 0 512 512;" version="1.1" viewBox="0 0 512 512" width="512px" xml:space="preserve" xmlns="http://www.w3.org/2000/svg" xmlns:xlink="http://www.w3.org/1999/xlink"><g id="_x35_93_x2C__Blood_aid_x2C__blood_drop_x2C__droplets_x2C__drops_x2C__hospital"><g><g><g><g><path d="M363.665,500.956c-59.377,0-107.684-44.203-107.684-98.537c0-22.009,16.265-68.841,49.723-143.172       c24.236-53.843,48.798-102.331,49.043-102.814c1.704-3.359,5.151-5.476,8.918-5.476s7.214,2.117,8.918,5.476       c0.245,0.483,24.807,48.972,49.042,102.814c33.458,74.331,49.723,121.163,49.723,143.172       C471.348,456.753,423.041,500.956,363.665,500.956z M363.665,183.317c-30.813,62.39-87.684,184.657-87.684,219.102       c0,43.306,39.335,78.537,87.684,78.537s87.683-35.231,87.683-78.537C451.348,367.974,394.478,245.707,363.665,183.317z"/></g><g><path d="M131.347,370.956c-49.626,0-90-34.575-90-77.073c0-38.494,72.917-172.573,81.232-187.734       c1.756-3.202,5.117-5.192,8.768-5.192s7.012,1.99,8.768,5.192c8.314,15.162,81.232,149.241,81.232,187.734       C221.347,336.381,180.973,370.956,131.347,370.956z M131.348,131.977c-30.899,57.886-70,138.864-70,161.906       c0,31.471,31.402,57.073,70,57.073s70-25.603,70-57.073C201.347,270.834,162.246,189.86,131.348,131.977z"/></g><g><path d="M259.748,160.957c-28.453,0-51.601-20.132-51.601-44.878c0-20.772,35.68-86.888,42.833-99.931       c1.755-3.201,5.117-5.191,8.768-5.191l0,0c3.651,0,7.013,1.99,8.769,5.192c7.152,13.042,42.831,79.158,42.831,99.93       C311.348,140.824,288.2,160.957,259.748,160.957z M259.74,42.172c-16.687,31.968-31.593,65.003-31.593,73.906       c0,13.718,14.176,24.878,31.601,24.878c17.424,0,31.6-11.16,31.6-24.878C291.348,106.469,274.919,71.31,259.74,42.172z"/></g><g><path d="M391.348,440.956c-22.056,0-40-17.944-40-40s17.944-40,40-40s40,17.944,40,40S413.403,440.956,391.348,440.956z        M391.348,380.956c-11.028,0-20,8.972-20,20s8.972,20,20,20s20-8.972,20-20S402.376,380.956,391.348,380.956z"/></g><g><path d="M161.347,320.956c-16.542,0-30-13.458-30-30s13.458-30,30-30s30,13.458,30,30S177.889,320.956,161.347,320.956z        M161.347,280.956c-5.514,0-10,4.486-10,10s4.486,10,10,10s10-4.486,10-10S166.861,280.956,161.347,280.956z"/></g><g><path d="M271.35,120.96c-2.63,0-5.21-1.07-7.069-2.93c-1.87-1.86-2.931-4.44-2.931-7.07c0-2.63,1.061-5.21,2.931-7.07       c1.859-1.87,4.43-2.93,7.069-2.93c2.63,0,5.21,1.06,7.07,2.93c1.86,1.86,2.93,4.43,2.93,7.07c0,2.63-1.069,5.21-2.93,7.07       S273.979,120.96,271.35,120.96z"/></g></g></g></g></g><g id="Layer_1"/></svg>